General

Format                           : MPEG-4
Format profile                   : Base Media
Codec ID                         : isom
File size                        : 60.5 MiB
Duration                         : 3mn 41s
Overall bit rate                 : 2 288 Kbps
Encoded date                     : UTC 2012-04-25 06:34:01
Tagged date                      : UTC 2012-04-25 06:34:01

Video
ID                               : 1
Format                           : AVC
Format/Info                      : Advanced Video Codec
Format profile                   : High@L3.0
Format settings, CABAC           : Yes
Format settings, ReFrames        : 2 frames
Codec ID                         : avc1
Codec ID/Info                    : Advanced Video Coding
Duration                         : 3mn 41s
Bit rate mode                    : Variable
Bit rate                         : 2 233 Kbps
Maximum bit rate                 : 4 366 Kbps
Width                            : 720 pixels
Height                           : 480 pixels
Display aspect ratio             : 16:9
Original display aspect ratio    : 16:9
Frame rate mode                  : Constant
Frame rate                       : 25.000 fps
Standard                         : NTSC
Color space                      : YUV
Chroma subsampling               : 4:2:0
Bit depth                        : 8 bits
Scan type                        : Progressive
Bits/(Pixel*Frame)               : 0.258
Stream size                      : 58.4 MiB (97%)


Audio
ID                               : 2
Format                           : AAC
Format/Info                      : Advanced Audio Codec
Format profile                   : LC
Codec ID                         : 40
Duration                         : 3mn 41s
Bit rate mode                    : Variable
Bit rate                         : 69.6 Kbps
Maximum bit rate                 : 85.4 Kbps
Channel(s)                       : 2 channels
Channel positions                : Front: L R
Sampling rate                    : 44.1 KHz
Compression mode                 : Lossy
Stream size                      : 1.84 MiB (3%)